{
    "asset" : {
        "generator" : "Khronos glTF Blender I/O v1.6.16",
        "version" : "2.0"
    },
    "scene" : 0,
    "scenes" : [
        {
            "name" : "Scene",
            "nodes" : [
                4
            ]
        }
    ],
    "nodes" : [
        {
            "mesh" : 0,
            "name" : "Circle",
            "rotation" : [
                -0.1601293683052063,
                0.1418563723564148,
                -0.7288233637809753,
                0.6504244208335876
            ],
            "scale" : [
                0.12587222456932068,
                0.12587222456932068,
                0.12587222456932068
            ],
            "translation" : [
                4.2689032554626465,
                -0.17830908298492432,
                -1.9520606994628906
            ]
        },
        {
            "mesh" : 1,
            "name" : "Circle.001",
            "rotation" : [
                -0.18395227193832397,
                0.16311724483966827,
                -0.7231780290603638,
                0.6454207301139832
            ],
            "scale" : [
                0.12587222456932068,
                0.12587222456932068,
                0.12587222456932068
            ],
            "translation" : [
                4.065631866455078,
                -0.17830908298492432,
                -2.3574395179748535
            ]
        },
        {
            "mesh" : 2,
            "name" : "Pan main",
            "rotation" : [
                0,
                0.2364143580198288,
                0,
                0.9716523289680481
            ],
            "scale" : [
                4.740346431732178,
                4.740346431732178,
                4.740346431732178
            ],
            "translation" : [
                0,
                -1.4326037168502808,
                0
            ]
        },
        {
            "mesh" : 3,
            "name" : "Pan main.001",
            "rotation" : [
                0,
                0.23312324285507202,
                0,
                0.9724472165107727
            ],
            "scale" : [
                3.5072293281555176,
                3.5072290897369385,
                3.5072293281555176
            ],
            "translation" : [
                4.322659015655518,
                -0.1573491096496582,
                -2.235780715942383
            ]
        },
        {
            "children" : [
                0,
                1,
                2,
                3
            ],
            "name" : "Empty.002",
            "scale" : [
                0.21095505356788635,
                0.21095505356788635,
                0.21095505356788635
            ],
            "translation" : [
                0,
                0.36860162019729614,
                0
            ]
        }
    ],
    "materials" : [
        {
            "doubleSided" : true,
            "name" : "Handle metallic",
            "pbrMetallicRoughness" : {
                "baseColorFactor" : [
                    0.36941370368003845,
                    0.36941370368003845,
                    0.36941370368003845,
                    1
                ],
                "roughnessFactor" : 0.34898728132247925
            }
        },
        {
            "doubleSided" : true,
            "name" : "Pan",
            "pbrMetallicRoughness" : {
                "baseColorFactor" : [
                    0.46995535492897034,
                    0.27054017782211304,
                    0.16819573938846588,
                    1
                ],
                "roughnessFactor" : 0.5
            }
        }
    ],
    "meshes" : [
        {
            "name" : "Circle.002",
            "primitives" : [
                {
                    "attributes" : {
                        "POSITION" : 0,
                        "NORMAL" : 1,
                        "TEXCOORD_0" : 2
                    },
                    "indices" : 3,
                    "material" : 0
                }
            ]
        },
        {
            "name" : "Circle.003",
            "primitives" : [
                {
                    "attributes" : {
                        "POSITION" : 4,
                        "NORMAL" : 5,
                        "TEXCOORD_0" : 6
                    },
                    "indices" : 3,
                    "material" : 0
                }
            ]
        },
        {
            "name" : "Circle",
            "primitives" : [
                {
                    "attributes" : {
                        "POSITION" : 7,
                        "NORMAL" : 8,
                        "TEXCOORD_0" : 9
                    },
                    "indices" : 10,
                    "material" : 1
                },
                {
                    "attributes" : {
                        "POSITION" : 11,
                        "NORMAL" : 12,
                        "TEXCOORD_0" : 13
                    },
                    "indices" : 14,
                    "material" : 0
                }
            ]
        },
        {
            "name" : "Circle.004",
            "primitives" : [
                {
                    "attributes" : {
                        "POSITION" : 15,
                        "NORMAL" : 16,
                        "TEXCOORD_0" : 17
                    },
                    "indices" : 18,
                    "material" : 0
                }
            ]
        }
    ],
    "accessors" : [
        {
            "bufferView" : 0,
            "componentType" : 5126,
            "count" : 384,
            "max" : [
                0.9903435707092285,
                -0.09464722871780396,
                0.9900733232498169
            ],
            "min" : [
                -0.9893306493759155,
                -0.4509314298629761,
                -0.9896044731140137
            ],
            "type" : "VEC3"
        },
        {
            "bufferView" : 1,
            "componentType" : 5126,
            "count" : 384,
            "type" : "VEC3"
        },
        {
            "bufferView" : 2,
            "componentType" : 5126,
            "count" : 384,
            "type" : "VEC2"
        },
        {
            "bufferView" : 3,
            "componentType" : 5123,
            "count" : 2292,
            "type" : "SCALAR"
        },
        {
            "bufferView" : 4,
            "componentType" : 5126,
            "count" : 384,
            "max" : [
                0.9903435707092285,
                -0.09464722871780396,
                0.9900733232498169
            ],
            "min" : [
                -0.9893306493759155,
                -0.4509314298629761,
                -0.9896044731140137
            ],
            "type" : "VEC3"
        },
        {
            "bufferView" : 5,
            "componentType" : 5126,
            "count" : 384,
            "type" : "VEC3"
        },
        {
            "bufferView" : 6,
            "componentType" : 5126,
            "count" : 384,
            "type" : "VEC2"
        },
        {
            "bufferView" : 7,
            "componentType" : 5126,
            "count" : 6274,
            "max" : [
                1.008455753326416,
                0.3935234844684601,
                1.008455753326416
            ],
            "min" : [
                -1.008455753326416,
                -0.01500000525265932,
                -1.0084558725357056
            ],
            "type" : "VEC3"
        },
        {
            "bufferView" : 8,
            "componentType" : 5126,
            "count" : 6274,
            "type" : "VEC3"
        },
        {
            "bufferView" : 9,
            "componentType" : 5126,
            "count" : 6274,
            "type" : "VEC2"
        },
        {
            "bufferView" : 10,
            "componentType" : 5123,
            "count" : 36864,
            "type" : "SCALAR"
        },
        {
            "bufferView" : 11,
            "componentType" : 5126,
            "count" : 1152,
            "max" : [
                1.0072543621063232,
                0.39596930146217346,
                1.0072544813156128
            ],
            "min" : [
                -1.0072544813156128,
                0.39329731464385986,
                -1.0072544813156128
            ],
            "type" : "VEC3"
        },
        {
            "bufferView" : 12,
            "componentType" : 5126,
            "count" : 1152,
            "type" : "VEC3"
        },
        {
            "bufferView" : 13,
            "componentType" : 5126,
            "count" : 1152,
            "type" : "VEC2"
        },
        {
            "bufferView" : 14,
            "componentType" : 5123,
            "count" : 6144,
            "type" : "SCALAR"
        },
        {
            "bufferView" : 15,
            "componentType" : 5126,
            "count" : 1328,
            "max" : [
                2.1194591522216797,
                0.373776376247406,
                0.19339212775230408
            ],
            "min" : [
                -0.04994095489382744,
                -0.09269654750823975,
                -0.19339273869991302
            ],
            "type" : "VEC3"
        },
        {
            "bufferView" : 16,
            "componentType" : 5126,
            "count" : 1328,
            "type" : "VEC3"
        },
        {
            "bufferView" : 17,
            "componentType" : 5126,
            "count" : 1328,
            "type" : "VEC2"
        },
        {
            "bufferView" : 18,
            "componentType" : 5123,
            "count" : 7968,
            "type" : "SCALAR"
        }
    ],
    "bufferViews" : [
        {
            "buffer" : 0,
            "byteLength" : 4608,
            "byteOffset" : 0
        },
        {
            "buffer" : 0,
            "byteLength" : 4608,
            "byteOffset" : 4608
        },
        {
            "buffer" : 0,
            "byteLength" : 3072,
            "byteOffset" : 9216
        },
        {
            "buffer" : 0,
            "byteLength" : 4584,
            "byteOffset" : 12288
        },
        {
            "buffer" : 0,
            "byteLength" : 4608,
            "byteOffset" : 16872
        },
        {
            "buffer" : 0,
            "byteLength" : 4608,
            "byteOffset" : 21480
        },
        {
            "buffer" : 0,
            "byteLength" : 3072,
            "byteOffset" : 26088
        },
        {
            "buffer" : 0,
            "byteLength" : 75288,
            "byteOffset" : 29160
        },
        {
            "buffer" : 0,
            "byteLength" : 75288,
            "byteOffset" : 104448
        },
        {
            "buffer" : 0,
            "byteLength" : 50192,
            "byteOffset" : 179736
        },
        {
            "buffer" : 0,
            "byteLength" : 73728,
            "byteOffset" : 229928
        },
        {
            "buffer" : 0,
            "byteLength" : 13824,
            "byteOffset" : 303656
        },
        {
            "buffer" : 0,
            "byteLength" : 13824,
            "byteOffset" : 317480
        },
        {
            "buffer" : 0,
            "byteLength" : 9216,
            "byteOffset" : 331304
        },
        {
            "buffer" : 0,
            "byteLength" : 12288,
            "byteOffset" : 340520
        },
        {
            "buffer" : 0,
            "byteLength" : 15936,
            "byteOffset" : 352808
        },
        {
            "buffer" : 0,
            "byteLength" : 15936,
            "byteOffset" : 368744
        },
        {
            "buffer" : 0,
            "byteLength" : 10624,
            "byteOffset" : 384680
        },
        {
            "buffer" : 0,
            "byteLength" : 15936,
            "byteOffset" : 395304
        }
    ],
    "buffers" : [
        {
            "byteLength" : 411240,
            "uri" : "data:application/octet-stream;base64,"
        }
    ]
}
